<svg class="icon" style="width: 1em; height: 1em;vertical-align: middle;fill: currentColor;overflow: hidden;" viewBox="0 0 1024 1024" version="1.1" xmlns="http://www.w3.org/2000/svg"><path d="M401.9 782.07a587.264 587.264 0 0 0 95.17 62.218V680.202H295.793A1066.189 1066.189 0 0 0 401.92 782.07z m296.468-139.653h88.064V511.18l-88.064-8.684v139.92z m88.064-302.326l-88.064-41.78V457.36l88.064 8.684V340.09z m37.745 302.326H962.56l-37.745-25.19V226.713L547.39 44.646v119.071l276.788 138.568v340.132zM659.68 498.688l-112.271-11.06v154.83H659.68v-143.79z m18.576 304.333a1453.814 1453.814 0 0 1-130.847 93.163V1024c73.728-29.45 168.489-96.133 256.799-184.996a864.707 864.707 0 0 0 113.295-147.456l45.056-11.284H811.581a1701.52 1701.52 0 0 1-133.345 122.88zM659.68 279.96L547.41 226.715v215.654l112.271 11.06V279.961zM245.473 680.203H81.92l49.152 17.101a947.343 947.343 0 0 0 114.913 141.68C334.131 927.745 424.264 994.428 497.091 1024V892.62a1441.137 1441.137 0 0 1-125.03-89.435 1130.066 1130.066 0 0 1-126.567-122.88zM861.921 12.554L748.524 0v113.644l113.397 50.073V12.554zM119.665 617.226l-37.745 25.19h138.404V302.286L497.09 163.717V47.104l-377.426 179.61v390.512z m0 0" /></svg>